<svg xmlns="http://www.w3.org/2000/svg" viewBox="0 0 512 512">
  <rect width="512" height="512" rx="96" fill="#0f766e"/>
  <circle cx="256" cy="256" r="164" fill="#fffaf0"/>
  <path fill="#17231f" d="M255 116c24 0 44 20 44 44s-20 44-44 44-44-20-44-44 20-44 44-44Zm-83 150c8-31 36-52 68-52h32c32 0 60 21 68 52l20 77c4 15-5 30-20 34-15 3-30-6-34-20l-16-63v101c0 17-13 30-30 30h-8c-17 0-30-13-30-30V294l-16 63c-4 14-19 23-34 20-15-4-24-19-20-34l20-77Z"/>
  <path fill="#d9480f" d="M365 179c20 19 34 44 39 72 2 14-7 28-21 31-15 2-28-7-31-21-3-17-12-32-24-44-10-10-10-26 0-37 10-10 26-10 37-1Z"/>
</svg>
